<svg xmlns="http://www.w3.org/2000/svg" width="512" height="512" viewBox="0 0 512 512" version="1.1">
	<path d="M 86.451 14.268 C 86.183 14.965, 86.085 26.778, 86.232 40.518 L 86.500 65.500 102.755 65.775 L 119.009 66.050 118.755 172.275 L 118.500 278.500 102.500 279 L 86.500 279.500 86.500 305 L 86.500 330.500 145.750 330.758 L 205 331.016 205 305.008 L 205 279 188.607 279 C 174.581 279, 172.126 278.772, 171.607 277.418 C 170.816 275.357, 170.816 244.643, 171.607 242.582 C 172.147 241.174, 176.862 241, 214.485 241 C 247.127 241, 256.972 241.285, 257.707 242.250 C 258.230 242.938, 259.691 245.975, 260.952 249 C 263.112 254.179, 267.835 264.505, 273.759 277 C 277.548 284.990, 283.835 294.538, 290.378 302.237 C 295.264 307.987, 298.587 311.034, 309 319.317 C 311.981 321.687, 323.699 326.948, 329.535 328.536 C 341.298 331.736, 355.468 332.819, 367 331.399 C 380.930 329.684, 385.173 328.552, 393.500 324.329 C 405.051 318.471, 425.998 302.407, 425.999 299.406 C 426 298.804, 423.862 295.835, 421.250 292.810 C 418.637 289.784, 415.417 286.001, 414.094 284.404 C 412.771 282.807, 409.846 279.475, 407.593 277 C 405.341 274.525, 401.698 270.363, 399.499 267.750 C 397.300 265.137, 395.110 263, 394.634 263 C 394.157 263, 390.856 265.288, 387.298 268.084 C 375.381 277.450, 365.549 280.772, 353.118 279.635 C 338.196 278.269, 329.685 270.269, 320.402 248.883 C 315.341 237.225, 315.278 237.478, 324 234.542 C 344.894 227.510, 367.414 209.767, 380.518 190.012 C 389.332 176.725, 393.925 165.981, 398.052 149 C 399.853 141.589, 399.847 112.377, 398.044 105 C 395.976 96.544, 390.037 80.014, 387.264 75 C 375.121 53.041, 355.765 34.614, 333.500 23.814 C 326.076 20.213, 318.990 17.861, 310 16.016 C 306.975 15.394, 302.581 14.462, 300.236 13.943 C 297.714 13.385, 253.253 13, 191.454 13 C 107.970 13, 86.839 13.255, 86.451 14.268 M 171.667 66.667 C 170.693 67.641, 170.880 186.262, 171.858 187.804 C 172.527 188.860, 184.987 189.051, 237.190 188.804 C 279.869 188.603, 302.169 188.148, 303.097 187.459 C 303.869 186.886, 306.300 185.823, 308.500 185.097 C 314.507 183.116, 321.816 178.321, 328.339 172.084 C 334.963 165.750, 339.293 159.423, 343.452 150 C 346.019 144.185, 346.369 142.104, 346.777 130.240 C 347.286 115.410, 346.526 110.955, 341.787 101 C 333.583 83.766, 319.194 72.217, 299.500 67.059 C 295.066 65.897, 172.811 65.522, 171.667 66.667 M 204.310 381.873 C 196.975 384.789, 191.356 391.535, 189.213 400 C 188.586 402.475, 187.380 409.900, 186.532 416.500 C 184.575 431.737, 183.194 441.775, 181.925 450 C 178.464 472.438, 177.474 486.281, 179.048 490.268 C 182.732 499.602, 194.025 504.322, 204 500.698 C 215.542 496.505, 220.086 491.003, 222.747 478 C 224.671 468.598, 227.110 448.986, 226.481 447.969 C 225.712 446.725, 209.307 446.695, 208.540 447.936 C 207.987 448.830, 207.371 452.682, 204.649 472.248 C 203.392 481.292, 201.527 484.800, 198.578 483.668 C 196.287 482.789, 196.388 480.829, 199.974 456.500 C 200.460 453.200, 201.609 444.875, 202.526 438 C 203.444 431.125, 204.561 423.025, 205.009 420 C 205.458 416.975, 206.313 411.141, 206.912 407.036 C 208.059 399.160, 209.729 396.298, 212.547 397.380 C 214.033 397.950, 214.169 399.077, 213.618 406.266 C 212.735 417.791, 211.471 427.164, 210.500 429.395 C 209.136 432.527, 211.873 433.533, 220.787 433.176 L 228.889 432.851 229.878 427.676 C 230.421 424.829, 231.126 420.250, 231.443 417.500 C 231.761 414.750, 232.521 409.125, 233.133 405 C 234.918 392.974, 231.899 385.675, 223.579 381.896 C 218.530 379.603, 210.045 379.593, 204.310 381.873 M 309.707 381.533 C 299.803 385.168, 294.344 392.947, 292.538 406 C 292.196 408.475, 291.464 413.650, 290.912 417.500 C 288.505 434.282, 287.972 438.152, 286.504 449.500 C 285.650 456.100, 284.431 464.864, 283.796 468.976 C 280.659 489.264, 283.257 496.657, 294.955 500.734 C 304.799 504.165, 317.948 499.076, 323.419 489.718 C 326.324 484.749, 326.958 481.479, 331.506 448 C 332.365 441.675, 333.471 433.800, 333.963 430.500 C 338.278 401.575, 338.481 392.965, 334.985 387.215 C 331.206 381.001, 318.772 378.206, 309.707 381.533 M 360.500 381.792 C 350.029 385.975, 344.984 396.010, 343.463 415.682 C 342.265 431.173, 342.682 432.339, 353.134 442.702 C 363.245 452.727, 364.056 454.555, 362.785 464.451 C 360.630 481.235, 359.668 484, 355.985 484 C 353.326 484, 352.942 481.757, 354.142 473.237 C 356.239 458.355, 356.576 455.229, 356.206 454.119 C 355.749 452.746, 339.385 452.568, 338.546 453.926 C 337.828 455.088, 335.061 472.495, 334.320 480.511 C 332.886 496.030, 346.476 505.800, 362 500.408 C 374.241 496.157, 378.457 488.810, 381.169 467 C 383.731 446.409, 382.472 441.934, 371.886 434 C 368.584 431.525, 364.951 428.003, 363.812 426.174 C 361.844 423.011, 361.801 422.333, 362.923 412.357 C 364.229 400.753, 365.549 396.763, 367.928 397.231 C 369.721 397.583, 369.873 402.293, 368.514 415.291 L 367.700 423.082 376.600 422.791 L 385.500 422.500 386.654 417 C 387.288 413.975, 387.849 406.775, 387.900 401 C 387.978 392.145, 387.678 389.985, 385.987 387.210 C 382.051 380.755, 369.680 378.125, 360.500 381.792 M 51.828 381.903 C 48.708 382.237, 45.805 382.862, 45.376 383.291 C 44.947 383.719, 44.253 386.867, 43.832 390.285 C 42.928 397.638, 40.333 416.822, 39 426 C 38.481 429.575, 37.356 437.675, 36.500 444 C 35.644 450.325, 34.525 458.425, 34.012 462 C 33.500 465.575, 32.396 473.675, 31.560 480 C 30.723 486.325, 29.746 493.413, 29.388 495.750 L 28.737 500 37.809 500 C 42.799 500, 47.141 499.582, 47.457 499.070 C 47.773 498.559, 48.508 494.621, 49.091 490.320 C 49.674 486.019, 50.556 479.575, 51.052 476 C 51.548 472.425, 52.553 464.658, 53.286 458.740 C 54.701 447.318, 55.851 444.783, 58.778 446.636 C 61.066 448.085, 60.994 458.982, 58.583 476 C 57.609 482.875, 56.575 491.087, 56.286 494.250 L 55.760 500 64.767 500 L 73.774 500 74.836 493.750 C 75.421 490.313, 76.186 485.475, 76.538 483 C 76.889 480.525, 77.556 476.025, 78.020 473 C 79.956 460.376, 80.860 450.523, 80.350 447.608 C 79.670 443.722, 77.290 438.297, 75.883 437.427 C 75.239 437.030, 76.221 435.333, 78.367 433.135 C 82.569 428.829, 84.503 423.809, 85.941 413.469 C 89.757 386.037, 81.812 378.686, 51.828 381.903 M 449.002 381.744 C 442.915 382.279, 441 384.214, 441 389.834 C 441 392.322, 440.582 395.740, 440.071 397.429 C 439.560 399.118, 438.597 405, 437.932 410.500 C 436.504 422.300, 435.448 430.101, 434.072 439 C 433.520 442.575, 432.366 450.675, 431.508 457 C 428.518 479.046, 428.030 482.542, 427.038 489 C 425.212 500.895, 424.626 500.118, 435.169 499.788 C 445.886 499.451, 445.027 500.565, 446.956 484.500 C 447.617 479, 448.589 471.575, 449.117 468 C 449.646 464.425, 450.463 458.420, 450.933 454.655 C 451.895 446.968, 453.110 444.953, 455.778 446.625 C 458.799 448.520, 458.574 457.971, 454.982 480 C 454.489 483.025, 453.783 488.762, 453.413 492.750 L 452.742 500 461.710 500 L 470.679 500 471.820 493.250 C 474.484 477.489, 476.951 456.998, 476.979 450.399 C 476.993 446.870, 476.242 443.873, 474.542 440.676 C 472.231 436.328, 472.189 435.978, 473.833 434.777 C 479.612 430.556, 483.209 418.574, 483.370 403.005 C 483.445 395.772, 483.057 392.742, 481.749 390.329 C 477.489 382.470, 468.267 380.053, 449.002 381.744 M 96.599 384.750 C 96.291 386.262, 95.580 391.100, 95.018 395.500 C 94.457 399.900, 93.529 406.875, 92.957 411 C 92.384 415.125, 91.241 423.450, 90.417 429.500 C 89.592 435.550, 88.470 443.650, 87.922 447.500 C 87.374 451.350, 86.234 459.675, 85.388 466 C 84.542 472.325, 83.477 479.975, 83.021 483 C 82.564 486.025, 81.860 491.087, 81.456 494.250 L 80.720 500 98.813 500 L 116.906 500 117.947 496.250 C 118.520 494.188, 118.991 490.363, 118.994 487.750 L 119 483 111.059 483 C 106.691 483, 102.858 482.579, 102.539 482.063 C 102.005 481.199, 103.389 470.035, 106.236 452.258 C 107.520 444.238, 107.290 444.411, 117.500 443.757 L 121.500 443.500 122.224 436.500 C 122.622 432.650, 122.749 428.938, 122.505 428.250 C 122.216 427.434, 119.934 427, 115.931 427 L 109.799 427 110.318 422.750 C 112.281 406.684, 112.921 402.295, 113.527 400.750 C 114.093 399.309, 115.485 399, 121.416 399 C 129.867 399, 131.539 398.006, 132.355 392.500 C 132.680 390.300, 133.240 387.038, 133.598 385.250 L 134.250 382 115.704 382 L 97.159 382 96.599 384.750 M 143.480 383.250 C 143.124 384.225, 138.217 408.781, 133.739 432 C 133.474 433.375, 132.305 439.225, 131.143 445 C 129.980 450.775, 128.582 457.750, 128.037 460.500 C 125.282 474.386, 123.749 481.829, 122.992 485 C 121.238 492.346, 120.383 497.649, 120.767 498.802 C 121.038 499.613, 124.037 500, 130.045 500 L 138.923 500 139.869 496.250 C 140.390 494.188, 141.586 488, 142.527 482.500 C 143.469 477, 144.785 470.700, 145.453 468.500 C 146.630 464.620, 146.800 464.500, 151.083 464.500 L 155.500 464.500 155.420 471 C 155.376 474.575, 154.968 482.581, 154.515 488.791 L 153.690 500.082 162.595 499.791 L 171.500 499.500 172.214 495 C 172.606 492.525, 173.625 481.050, 174.478 469.500 C 176.225 445.836, 177.602 429.181, 179.025 414.500 C 179.558 409, 180.284 399.438, 180.639 393.250 L 181.285 382 162.611 382 C 148.582 382, 143.824 382.311, 143.480 383.250 M 243.692 382.750 C 243.325 383.396, 242.283 390.264, 240.466 404 C 240.211 405.925, 239.101 413.800, 237.998 421.500 C 236.896 429.200, 235.527 439.100, 234.957 443.500 C 234.387 447.900, 233.511 453.975, 233.011 457 C 232.511 460.025, 231.383 468.350, 230.504 475.500 C 229.626 482.650, 228.477 490.678, 227.951 493.340 C 227.424 496.002, 227.247 498.590, 227.556 499.090 C 227.865 499.591, 232.093 500, 236.951 500 C 247.129 500, 246.138 501.170, 247.952 487 C 249.190 477.330, 250.346 469.236, 252.237 457 C 253.417 449.358, 253.782 448.467, 255.848 448.171 C 260.222 447.544, 260.792 448.391, 259.892 454.166 C 259.434 457.100, 258.561 463.325, 257.952 468 C 257.344 472.675, 256.446 479.200, 255.959 482.500 C 255.471 485.800, 254.766 491.105, 254.393 494.289 L 253.715 500.079 263.108 499.789 L 272.500 499.500 273.113 495 C 273.450 492.525, 274.472 484.875, 275.383 478 C 276.294 471.125, 277.484 462.575, 278.028 459 C 279.223 451.139, 281.171 437.065, 285.020 408.500 C 285.539 404.650, 286.413 398.575, 286.962 395 C 287.511 391.425, 287.969 387.038, 287.980 385.250 L 288 382 279.104 382 L 270.207 382 269.052 390.750 C 268.416 395.563, 267.496 401.750, 267.007 404.500 C 266.517 407.250, 265.617 413.325, 265.006 418 C 263.436 430.011, 263.442 430, 259.319 430 C 255.858 430, 255.788 429.922, 256.391 426.750 C 256.731 424.962, 257.695 418.550, 258.533 412.500 C 260.540 398.009, 261.852 389.235, 262.609 385.250 L 263.227 382 253.673 382 C 248.418 382, 243.926 382.337, 243.692 382.750 M 399.111 389.250 C 398.471 393.238, 397.474 400.100, 396.896 404.500 C 396.318 408.900, 395.457 414.975, 394.983 418 C 394.508 421.025, 393.406 428.900, 392.532 435.500 C 390.967 447.320, 390.643 449.640, 387.502 471.500 C 385.335 486.588, 384.096 496.167, 384.044 498.250 C 384.004 499.853, 385.502 500, 401.893 500 C 422.316 500, 420.627 500.862, 421.644 489.916 L 422.287 483 414.203 483 C 409.756 483, 405.852 482.569, 405.526 482.043 C 405.201 481.516, 405.391 478.254, 405.948 474.793 C 406.506 471.332, 407.690 463.550, 408.580 457.500 C 409.661 450.150, 410.726 446.085, 411.790 445.250 C 412.666 444.563, 415.730 444, 418.600 444 L 423.818 444 425.052 437.095 C 426.750 427.597, 426.389 427, 418.943 427 L 412.824 427 413.394 423.250 C 413.707 421.188, 414.443 415.675, 415.030 411 C 416.633 398.226, 416.033 399.002, 424.317 398.985 C 428.268 398.976, 432.034 398.630, 432.687 398.214 C 434.603 396.996, 436 392.239, 436 386.935 L 436 382 418.137 382 L 400.274 382 399.111 389.250 M 313.557 399.223 C 312.701 400.445, 312 402.913, 312 404.708 C 312 406.503, 311.565 409.890, 311.034 412.236 C 310.503 414.581, 309.389 421.675, 308.559 428 C 307.728 434.325, 306.811 441.075, 306.520 443 C 306.230 444.925, 305.567 449.425, 305.048 453 C 304.528 456.575, 303.639 462.425, 303.072 466 C 302.504 469.575, 302.031 475.087, 302.020 478.250 C 302.002 483.306, 302.237 484, 303.965 484 C 306.926 484, 308.256 480.563, 309.768 469 C 310.523 463.225, 311.516 456.025, 311.973 453 C 312.431 449.975, 313.556 441.875, 314.474 435 C 316.198 422.078, 317.418 413.548, 318.576 406.310 C 319.857 398.309, 317.011 394.290, 313.557 399.223 M 61.667 398.667 C 61.300 399.033, 60.989 400.946, 60.976 402.917 C 60.962 404.887, 60.552 408.300, 60.065 410.500 C 59.578 412.700, 58.864 417.805, 58.479 421.845 C 57.828 428.662, 57.912 429.165, 59.639 428.845 C 60.663 428.655, 62.473 426.571, 63.663 424.214 C 66.295 419, 67.845 404.150, 66.146 400.422 C 65.081 398.084, 63.047 397.287, 61.667 398.667 M 157.544 401.699 C 156.204 408.639, 155.130 414.406, 153.486 423.500 C 152.592 428.450, 151.430 434.750, 150.904 437.500 C 149.132 446.776, 149.037 446.467, 153.750 446.807 C 156.088 446.977, 158.004 446.752, 158.008 446.307 C 158.013 445.863, 158.485 441.450, 159.058 436.500 C 159.946 428.832, 161.474 412.209, 162.275 401.500 C 162.454 399.121, 162.063 398.438, 160.389 398.199 C 158.658 397.952, 158.146 398.580, 157.544 401.699 M 458.996 398.750 C 458.994 399.163, 458.365 403.550, 457.598 408.500 C 455.079 424.767, 454.825 429, 456.369 429 C 459.912 429, 462.720 421.816, 463.625 410.434 C 464.297 401.989, 463.283 398, 460.465 398 C 459.659 398, 458.998 398.337, 458.996 398.750" stroke="none" fill="black" fill-rule="evenodd"/>
</svg>